nColumns=19
nRows=13
DataType=double
version=3
OpenSimVersion=4.1
endheader
time	ground_force_1_vx	ground_force_1_vy	ground_force_1_vz	ground_force_1_px	ground_force_1_py	ground_force_1_pz	ground_moment_1_mx	ground_moment_1_my	ground_moment_1_mz	ground_force_2_vx	ground_force_2_vy	ground_force_2_vz	ground_force_2_px	ground_force_2_py	ground_force_2_pz	ground_moment_2_mx	ground_moment_2_my	ground_moment_2_mz
1.81	8.906519962201642	74.30431220759077	0.1485464247185252	0.2837520368460865	0.002560875843828706	-0.1932934243572367	-0.0001226072663040695	-0.02556854763016787	-6.008042271682211e-05	-119.5960685651489	705.7888196080045	16.93721354621836	0.7786824580412387	0.000946370945867822	-0.2398016336731763	0.003688112965599209	0.8924528991714606	0.002651711274719
1.811	8.417644742667132	71.19385612071666	-0.4252096111348395	0.2879395364554199	0.002538902139853941	-0.1924875409304762	-0.0002920629569571996	-0.06090687649333854	-0.0001431176670263234	-118.9292540353746	709.464415647497	16.5480926780053	0.7789947647252158	0.0009448378622387281	-0.2397200325572853	0.003917853944840825	0.9480458283726841	0.002816892425785234
1.812	7.645829204306454	68.08732334200053	-1.044690321977094	0.2858167565839693	0.002548168235523789	-0.1920989346679385	-0.0003064948632557578	-0.06391650956576728	-0.0001501896380209019	-118.3127060923229	712.1003011707578	16.20197076605048	0.7790304348428465	0.000943907954178523	-0.2394566766905917	0.004156005659794073	1.005673994981228	0.002988120800166817
1.813	7.273864265499247	65.45710390392223	-1.578988841486488	0.2874139952411771	0.00253568826435067	-0.1900473234043401	-0.000397053852784656	-0.08280170215596089	-0.0001945656569610117	-117.6785136049818	715.2983632588686	15.74960756223526	0.7791368616626722	0.0009439063378602545	-0.2396041556600747	0.004138589323307995	1.00145957418259	0.00297559865232178
1.814	7.11955234568651	63.62319189033464	-1.950883540374137	0.2879964638479596	0.002538134962995762	-0.1922772247327761	-0.0003892660084107884	-0.08117762329169737	-0.0001907494314130544	-117.003626532846	717.2140743065989	15.25478734572711	0.779304700817945	0.0009423319552155712	-0.2393077234660987	0.004305188318073513	1.041773349076246	0.003095381434708653
1.815	6.736679805740144	60.35357683989444	-2.065719035448396	0.2876290458872899	0.002541087238002869	-0.1927838335582717	-0.0003870349065167249	-0.08071234878745516	-0.0001896561394005957	-116.4033834029363	719.6110595496864	14.79999892975006	0.7792669958533501	0.0009419148507054926	-0.2391149022102774	0.004392634363876148	1.062933622046616	0.003158254147054319
1.816	6.597141933645417	58.35928790536527	-2.284711946808301	0.2875240308932433	0.002539071798495972	-0.1917118127658684	-0.0004185360000385392	-0.08728159410540696	-0.0002050924106093432	-115.7574861168385	721.9279207962443	14.34506734553235	0.7795903426416575	0.0009406269754499877	-0.2391311828201636	0.004452149935653515	1.077335253741194	0.003201045166249077
1.817	6.38148126724197	54.85203028265438	-2.49200221626797	0.28589199962122	0.002541065811479647	-0.1892298915327224	-0.0005206644517688358	-0.1085794850149502	-0.0002551377361135717	-115.1799229416989	724.405488486331	13.83651753633502	0.7796522770512354	0.0009401519949718961	-0.2390574656671667	0.004449371812130854	1.076663000907514	0.00319904772703387
1.818	6.05793747314558	52.777569705667	-2.634514081999296	0.2876529141719202	0.002537501459511777	-0.1913065349808439	-0.0003808188787449689	-0.0794160569203938	-0.0001866101406812342	-114.574634093764	726.1620775723779	13.37205360727593	0.7797886552433194	0.0009389897497450688	-0.2388559840998205	0.004492233288814273	1.08703465966246	0.003229864641275015
1.819	5.931289243726809	50.30552917185065	-2.686178211482603	0.2865766128050766	0.00254140997643581	-0.1907734617146399	-0.000299537992783687	-0.06246572219089089	-0.0001467806090836478	-113.9606841424486	728.1592325670101	12.95443031260115	0.7800515952523144	0.0009379374180251143	-0.2388675222949014	0.00443175256222807	1.072399478937436	0.003186379686750101
1.82	5.780623663127943	47.59207381572266	-2.738601001605515	0.2892316856601082	0.002529090145254768	-0.1909487440074276	-0.0004721755395291986	-0.09846759605838969	-0.0002313770371578394	-113.3770578497403	730.2363705926292	12.49087136609086	0.7801848044562273	0.0009370828611006107	-0.2387651879211409	0.004388775167233962	1.061999770165202	0.003155479428561991
1.821	5.495029101355997	45.44022391623726	-2.751202839209743	0.2872970954644078	0.00253616778196274	-0.1900128330818057	-0.0004427389105503248	-0.09232887465299341	-0.0002169524017694041	-112.7637553008776	732.074136122901	12.04180303586625	0.7803037565966242	0.0009366182705424471	-0.2387742702601394	0.004245148716930437	1.027244912283493	0.00305221364436011
1.822	5.378300525675256	43.44521933880652	-2.801748833800672	0.2871426219853173	0.00253865432989582	-0.1907558013609116	-0.0003345268324057783	-0.06976230288606011	-0.0001639259573018599	-112.1891273841452	733.8310182087114	11.66955159016627	0.7805504281785731	0.0009354168322232792	-0.2387129987133328	0.004184406828279669	1.012546535326724	0.003008540917281156
